<svg xmlns="http://www.w3.org/2000/svg" xml:space="preserve" viewBox="0 0 512 512"><path d="M142.22 142.22v28.44h199.11v170.67H170.67V142.22zv28.44zh-28.44v227.56c0 7.49 3.03 14.82 8.33 20.11 5.3 5.3 12.62 8.33 20.11 8.33h227.56c7.49 0 14.82-3.03 20.11-8.33 5.3-5.3 8.33-12.62 8.33-20.11V142.22c0-7.49-3.03-14.82-8.33-20.11-5.3-5.3-12.62-8.33-20.11-8.33H142.22c-7.49 0-14.82 3.03-20.11 8.33-5.3 5.3-8.33 12.62-8.33 20.11z"/><path d="M28.44 85.33h28.44c.03-15.7 12.75-28.42 28.44-28.44h341.33c15.7.03 28.42 12.75 28.44 28.44v341.33c-.03 15.7-12.75 28.42-28.44 28.44H85.33c-15.7-.03-28.42-12.75-28.44-28.44V85.33zH0v341.33c.02 47.14 38.19 85.31 85.33 85.33h341.33c47.14-.02 85.31-38.19 85.33-85.33V85.33C511.98 38.19 473.81.02 426.67 0H85.33C38.19.02.02 38.19 0 85.33z"/><path d="m349.66 389.89 93.87 93.87c11.11 11.11 29.12 11.11 40.23 0s11.11-29.12 0-40.23l-93.87-93.87c-11.11-11.11-29.12-11.11-40.23 0-11.1 11.11-11.1 29.12 0 40.23M389.89 162.34l93.87-93.87c11.11-11.11 11.11-29.12 0-40.23s-29.12-11.11-40.23 0l-93.87 93.87c-11.11 11.11-11.11 29.12 0 40.23 11.11 11.1 29.12 11.1 40.23 0M162.34 122.11 68.47 28.24c-11.11-11.11-29.12-11.11-40.23 0s-11.11 29.12 0 40.23l93.87 93.87c11.11 11.11 29.12 11.11 40.23 0 11.1-11.11 11.1-29.12 0-40.23M122.11 349.66l-93.87 93.87c-11.11 11.11-11.11 29.12 0 40.23s29.12 11.11 40.23 0l93.87-93.87c11.11-11.11 11.11-29.12 0-40.23-11.11-11.1-29.12-11.1-40.23 0"/></svg>